<svg width="458" height="124" viewBox="0 0 458 124" fill="none" xmlns="http://www.w3.org/2000/svg">
<path d="M130.878 76.5513V34.5513H149.238C153.798 34.5513 157.798 35.4313 161.238 37.1913C164.678 38.9513 167.358 41.3913 169.278 44.5113C171.198 47.6313 172.158 51.3113 172.158 55.5513C172.158 59.7513 171.198 63.4313 169.278 66.5913C167.358 69.7113 164.678 72.1513 161.238 73.9113C157.798 75.6713 153.798 76.5513 149.238 76.5513H130.878ZM138.678 69.9513H148.878C152.038 69.9513 154.758 69.3513 157.038 68.1513C159.358 66.9513 161.138 65.2713 162.378 63.1113C163.658 60.9513 164.298 58.4313 164.298 55.5513C164.298 52.6313 163.658 50.1113 162.378 47.9913C161.138 45.8313 159.358 44.1513 157.038 42.9513C154.758 41.7513 152.038 41.1513 148.878 41.1513H138.678V69.9513ZM199.469 76.5513V70.0713L199.049 68.6913V57.3513C199.049 55.1513 198.389 53.4513 197.069 52.2513C195.749 51.0113 193.749 50.3913 191.069 50.3913C189.269 50.3913 187.489 50.6713 185.729 51.2313C184.009 51.7913 182.549 52.5713 181.349 53.5713L178.409 48.1113C180.129 46.7913 182.169 45.8113 184.529 45.1713C186.929 44.4913 189.409 44.1513 191.969 44.1513C196.609 44.1513 200.189 45.2713 202.709 47.5113C205.269 49.7113 206.549 53.1313 206.549 57.7713V76.5513H199.469ZM189.389 76.9713C186.989 76.9713 184.889 76.5713 183.089 75.7713C181.289 74.9313 179.889 73.7913 178.889 72.3513C177.929 70.8713 177.449 69.2113 177.449 67.3713C177.449 65.5713 177.869 63.9513 178.709 62.5113C179.589 61.0713 181.009 59.9313 182.969 59.0913C184.929 58.2513 187.529 57.8313 190.769 57.8313H200.069V62.8113H191.309C188.749 62.8113 187.029 63.2313 186.149 64.0713C185.269 64.8713 184.829 65.8713 184.829 67.0713C184.829 68.4313 185.369 69.5113 186.449 70.3113C187.529 71.1113 189.029 71.5113 190.949 71.5113C192.789 71.5113 194.429 71.0913 195.869 70.2513C197.349 69.4113 198.409 68.1713 199.049 66.5313L200.309 71.0313C199.589 72.9113 198.289 74.3713 196.409 75.4113C194.569 76.4513 192.229 76.9713 189.389 76.9713ZM228.234 76.9713C224.714 76.9713 221.994 76.0713 220.074 74.2713C218.154 72.4313 217.194 69.7313 217.194 66.1713V37.4313H224.694V65.9913C224.694 67.5113 225.074 68.6913 225.834 69.5313C226.634 70.3713 227.734 70.7913 229.134 70.7913C230.814 70.7913 232.214 70.3513 233.334 69.4713L235.434 74.8113C234.554 75.5313 233.474 76.0713 232.194 76.4313C230.914 76.7913 229.594 76.9713 228.234 76.9713ZM211.914 50.7513V44.7513H233.274V50.7513H211.914ZM261.344 76.5513V70.0713L260.924 68.6913V57.3513C260.924 55.1513 260.264 53.4513 258.944 52.2513C257.624 51.0113 255.624 50.3913 252.944 50.3913C251.144 50.3913 249.364 50.6713 247.604 51.2313C245.884 51.7913 244.424 52.5713 243.224 53.5713L240.284 48.1113C242.004 46.7913 244.044 45.8113 246.404 45.1713C248.804 44.4913 251.284 44.1513 253.844 44.1513C258.484 44.1513 262.064 45.2713 264.584 47.5113C267.144 49.7113 268.424 53.1313 268.424 57.7713V76.5513H261.344ZM251.264 76.9713C248.864 76.9713 246.764 76.5713 244.964 75.7713C243.164 74.9313 241.764 73.7913 240.764 72.3513C239.804 70.8713 239.324 69.2113 239.324 67.3713C239.324 65.5713 239.744 63.9513 240.584 62.5113C241.464 61.0713 242.884 59.9313 244.844 59.0913C246.804 58.2513 249.404 57.8313 252.644 57.8313H261.944V62.8113H253.184C250.624 62.8113 248.904 63.2313 248.024 64.0713C247.144 64.8713 246.704 65.8713 246.704 67.0713C246.704 68.4313 247.244 69.5113 248.324 70.3113C249.404 71.1113 250.904 71.5113 252.824 71.5113C254.664 71.5113 256.304 71.0913 257.744 70.2513C259.224 69.4113 260.284 68.1713 260.924 66.5313L262.184 71.0313C261.464 72.9113 260.164 74.3713 258.284 75.4113C256.444 76.4513 254.104 76.9713 251.264 76.9713ZM287.289 76.5513V41.1513H273.369V34.5513H309.009V41.1513H295.089V76.5513H287.289ZM325.262 76.9713C321.982 76.9713 319.062 76.2713 316.502 74.8713C313.942 73.4313 311.922 71.4713 310.442 68.9913C308.962 66.5113 308.222 63.6913 308.222 60.5313C308.222 57.3313 308.962 54.5113 310.442 52.0713C311.922 49.5913 313.942 47.6513 316.502 46.2513C319.062 44.8513 321.982 44.1513 325.262 44.1513C328.582 44.1513 331.522 44.8513 334.082 46.2513C336.682 47.6513 338.702 49.5713 340.142 52.0113C341.622 54.4513 342.362 57.2913 342.362 60.5313C342.362 63.6913 341.622 66.5113 340.142 68.9913C338.702 71.4713 336.682 73.4313 334.082 74.8713C331.522 76.2713 328.582 76.9713 325.262 76.9713ZM325.262 70.5513C327.102 70.5513 328.742 70.1513 330.182 69.3513C331.622 68.5513 332.742 67.3913 333.542 65.8713C334.382 64.3513 334.802 62.5713 334.802 60.5313C334.802 58.4513 334.382 56.6713 333.542 55.1913C332.742 53.6713 331.622 52.5113 330.182 51.7113C328.742 50.9113 327.122 50.5113 325.322 50.5113C323.482 50.5113 321.842 50.9113 320.402 51.7113C319.002 52.5113 317.882 53.6713 317.042 55.1913C316.202 56.6713 315.782 58.4513 315.782 60.5313C315.782 62.5713 316.202 64.3513 317.042 65.8713C317.882 67.3913 319.002 68.5513 320.402 69.3513C321.842 70.1513 323.462 70.5513 325.262 70.5513ZM350.253 76.5513V34.5513H369.933C374.973 34.5513 378.813 35.5513 381.453 37.5513C384.093 39.5113 385.413 42.1513 385.413 45.4713C385.413 47.7113 384.893 49.6313 383.853 51.2313C382.813 52.7913 381.413 54.0113 379.653 54.8913C377.933 55.7313 376.053 56.1513 374.013 56.1513L375.093 53.9913C377.453 53.9913 379.573 54.4313 381.453 55.3113C383.333 56.1513 384.813 57.3913 385.893 59.0313C387.013 60.6713 387.573 62.7113 387.573 65.1513C387.573 68.7513 386.193 71.5513 383.433 73.5513C380.673 75.5513 376.573 76.5513 371.133 76.5513H350.253ZM358.053 70.4313H370.653C373.573 70.4313 375.813 69.9513 377.373 68.9913C378.933 68.0313 379.713 66.4913 379.713 64.3713C379.713 62.2913 378.933 60.7713 377.373 59.8113C375.813 58.8113 373.573 58.3113 370.653 58.3113H357.453V52.2513H369.093C371.813 52.2513 373.893 51.7713 375.333 50.8113C376.813 49.8513 377.553 48.4113 377.553 46.4913C377.553 44.5313 376.813 43.0713 375.333 42.1113C373.893 41.1513 371.813 40.6713 369.093 40.6713H358.053V70.4313ZM395.178 76.5513V44.5113H402.678V76.5513H395.178ZM398.958 39.2313C397.558 39.2313 396.398 38.7913 395.478 37.9113C394.598 37.0313 394.158 35.9713 394.158 34.7313C394.158 33.4513 394.598 32.3913 395.478 31.5513C396.398 30.6713 397.558 30.2313 398.958 30.2313C400.358 30.2313 401.498 30.6513 402.378 31.4913C403.298 32.2913 403.758 33.3113 403.758 34.5513C403.758 35.8713 403.318 36.9913 402.438 37.9113C401.558 38.7913 400.398 39.2313 398.958 39.2313ZM409.882 76.5513V71.8113L429.622 47.9313L431.002 50.5113H410.242V44.5113H437.002V49.2513L417.262 73.1313L415.762 70.5513H437.542V76.5513H409.882Z" fill="#3C81F6"/>
<path d="M133.711 96.2903C133.009 96.2903 132.334 96.1778 131.686 95.9528C131.047 95.7188 130.552 95.4218 130.201 95.0618L130.593 94.2923C130.926 94.6163 131.371 94.8908 131.929 95.1158C132.496 95.3318 133.09 95.4398 133.711 95.4398C134.305 95.4398 134.787 95.3678 135.156 95.2238C135.534 95.0708 135.808 94.8683 135.979 94.6163C136.159 94.3643 136.249 94.0853 136.249 93.7793C136.249 93.4103 136.141 93.1133 135.925 92.8883C135.718 92.6633 135.444 92.4878 135.102 92.3618C134.76 92.2268 134.382 92.1098 133.968 92.0108C133.554 91.9118 133.14 91.8083 132.726 91.7003C132.312 91.5833 131.929 91.4303 131.578 91.2413C131.236 91.0523 130.957 90.8048 130.741 90.4988C130.534 90.1838 130.431 89.7743 130.431 89.2703C130.431 88.8023 130.552 88.3748 130.795 87.9878C131.047 87.5918 131.43 87.2768 131.943 87.0428C132.456 86.7998 133.113 86.6783 133.914 86.6783C134.445 86.6783 134.971 86.7548 135.493 86.9078C136.015 87.0518 136.465 87.2543 136.843 87.5153L136.506 88.3118C136.101 88.0418 135.669 87.8438 135.21 87.7178C134.76 87.5918 134.323 87.5288 133.9 87.5288C133.333 87.5288 132.865 87.6053 132.496 87.7583C132.127 87.9113 131.853 88.1183 131.673 88.3793C131.502 88.6313 131.416 88.9193 131.416 89.2433C131.416 89.6123 131.52 89.9093 131.727 90.1343C131.943 90.3593 132.222 90.5348 132.564 90.6608C132.915 90.7868 133.297 90.8993 133.711 90.9983C134.125 91.0973 134.535 91.2053 134.94 91.3223C135.354 91.4393 135.732 91.5923 136.074 91.7813C136.425 91.9613 136.704 92.2043 136.911 92.5103C137.127 92.8163 137.235 93.2168 137.235 93.7118C137.235 94.1708 137.109 94.5983 136.857 94.9943C136.605 95.3813 136.218 95.6963 135.696 95.9393C135.183 96.1733 134.521 96.2903 133.711 96.2903ZM139.209 96.2093V89.1218H140.168V96.2093H139.209ZM139.695 87.5558C139.497 87.5558 139.331 87.4883 139.196 87.3533C139.061 87.2183 138.993 87.0563 138.993 86.8673C138.993 86.6783 139.061 86.5208 139.196 86.3948C139.331 86.2598 139.497 86.1923 139.695 86.1923C139.893 86.1923 140.06 86.2553 140.195 86.3813C140.33 86.5073 140.397 86.6648 140.397 86.8538C140.397 87.0518 140.33 87.2183 140.195 87.3533C140.069 87.4883 139.902 87.5558 139.695 87.5558ZM151.691 89.0543C152.267 89.0543 152.766 89.1668 153.189 89.3918C153.621 89.6078 153.954 89.9408 154.188 90.3908C154.431 90.8408 154.553 91.4078 154.553 92.0918V96.2093H153.594V92.1863C153.594 91.4393 153.414 90.8768 153.054 90.4988C152.703 90.1118 152.204 89.9183 151.556 89.9183C151.07 89.9183 150.647 90.0218 150.287 90.2288C149.936 90.4268 149.661 90.7193 149.463 91.1063C149.274 91.4843 149.18 91.9433 149.18 92.4833V96.2093H148.221V92.1863C148.221 91.4393 148.041 90.8768 147.681 90.4988C147.321 90.1118 146.817 89.9183 146.169 89.9183C145.692 89.9183 145.274 90.0218 144.914 90.2288C144.554 90.4268 144.275 90.7193 144.077 91.1063C143.888 91.4843 143.793 91.9433 143.793 92.4833V96.2093H142.835V89.1218H143.753V91.0388L143.604 90.7013C143.82 90.1883 144.167 89.7878 144.644 89.4998C145.13 89.2028 145.701 89.0543 146.358 89.0543C147.051 89.0543 147.641 89.2298 148.127 89.5808C148.613 89.9228 148.928 90.4403 149.072 91.1333L148.694 90.9848C148.901 90.4088 149.265 89.9453 149.787 89.5943C150.318 89.2343 150.953 89.0543 151.691 89.0543ZM160.81 96.2768C160.198 96.2768 159.645 96.1373 159.15 95.8583C158.655 95.5703 158.259 95.1608 157.962 94.6298C157.674 94.0898 157.53 93.4328 157.53 92.6588C157.53 91.8848 157.674 91.2323 157.962 90.7013C158.25 90.1613 158.641 89.7518 159.136 89.4728C159.631 89.1938 160.189 89.0543 160.81 89.0543C161.485 89.0543 162.088 89.2073 162.619 89.5133C163.159 89.8103 163.582 90.2333 163.888 90.7823C164.194 91.3223 164.347 91.9478 164.347 92.6588C164.347 93.3788 164.194 94.0088 163.888 94.5488C163.582 95.0888 163.159 95.5118 162.619 95.8178C162.088 96.1238 161.485 96.2768 160.81 96.2768ZM157.152 98.8283V89.1218H158.07V91.2548L157.975 92.6723L158.11 94.1033V98.8283H157.152ZM160.743 95.4263C161.247 95.4263 161.697 95.3138 162.093 95.0888C162.489 94.8548 162.804 94.5308 163.038 94.1168C163.272 93.6938 163.389 93.2078 163.389 92.6588C163.389 92.1098 163.272 91.6283 163.038 91.2143C162.804 90.8003 162.489 90.4763 162.093 90.2423C161.697 90.0083 161.247 89.8913 160.743 89.8913C160.239 89.8913 159.784 90.0083 159.379 90.2423C158.983 90.4763 158.668 90.8003 158.434 91.2143C158.209 91.6283 158.097 92.1098 158.097 92.6588C158.097 93.2078 158.209 93.6938 158.434 94.1168C158.668 94.5308 158.983 94.8548 159.379 95.0888C159.784 95.3138 160.239 95.4263 160.743 95.4263ZM166.301 96.2093V86.1923H167.26V96.2093H166.301ZM169.927 96.2093V89.1218H170.885V96.2093H169.927ZM170.413 87.5558C170.215 87.5558 170.048 87.4883 169.913 87.3533C169.778 87.2183 169.711 87.0563 169.711 86.8673C169.711 86.6783 169.778 86.5208 169.913 86.3948C170.048 86.2598 170.215 86.1923 170.413 86.1923C170.611 86.1923 170.777 86.2553 170.912 86.3813C171.047 86.5073 171.115 86.6648 171.115 86.8538C171.115 87.0518 171.047 87.2183 170.912 87.3533C170.786 87.4883 170.62 87.5558 170.413 87.5558ZM173.714 96.2093V88.2308C173.714 87.6008 173.899 87.0923 174.268 86.7053C174.637 86.3183 175.168 86.1248 175.861 86.1248C176.131 86.1248 176.392 86.1608 176.644 86.2328C176.896 86.3048 177.107 86.4173 177.278 86.5703L176.954 87.2858C176.819 87.1688 176.662 87.0833 176.482 87.0293C176.302 86.9663 176.108 86.9348 175.901 86.9348C175.496 86.9348 175.186 87.0473 174.97 87.2723C174.754 87.4973 174.646 87.8303 174.646 88.2713V89.3513L174.673 89.7968V96.2093H173.714ZM172.445 89.9183V89.1218H176.833V89.9183H172.445ZM178.313 98.8958C177.98 98.8958 177.66 98.8418 177.354 98.7338C177.057 98.6258 176.801 98.4638 176.585 98.2478L177.03 97.5323C177.21 97.7033 177.404 97.8338 177.611 97.9238C177.827 98.0228 178.065 98.0723 178.326 98.0723C178.641 98.0723 178.911 97.9823 179.136 97.8023C179.37 97.6313 179.591 97.3253 179.798 96.8843L180.257 95.8448L180.365 95.6963L183.281 89.1218H184.226L180.675 97.0598C180.477 97.5188 180.257 97.8833 180.014 98.1533C179.78 98.4233 179.523 98.6123 179.244 98.7203C178.965 98.8373 178.655 98.8958 178.313 98.8958ZM180.203 96.4118L176.936 89.1218H177.935L180.824 95.6288L180.203 96.4118ZM185.576 96.2093V89.1218H186.534V96.2093H185.576ZM186.062 87.5558C185.864 87.5558 185.697 87.4883 185.562 87.3533C185.427 87.2183 185.36 87.0563 185.36 86.8673C185.36 86.6783 185.427 86.5208 185.562 86.3948C185.697 86.2598 185.864 86.1923 186.062 86.1923C186.26 86.1923 186.426 86.2553 186.561 86.3813C186.696 86.5073 186.764 86.6648 186.764 86.8538C186.764 87.0518 186.696 87.2183 186.561 87.3533C186.435 87.4883 186.269 87.5558 186.062 87.5558ZM192.819 89.0543C193.395 89.0543 193.899 89.1668 194.331 89.3918C194.772 89.6078 195.114 89.9408 195.357 90.3908C195.609 90.8408 195.735 91.4078 195.735 92.0918V96.2093H194.777V92.1863C194.777 91.4393 194.588 90.8768 194.21 90.4988C193.841 90.1118 193.319 89.9183 192.644 89.9183C192.14 89.9183 191.699 90.0218 191.321 90.2288C190.952 90.4268 190.664 90.7193 190.457 91.1063C190.259 91.4843 190.16 91.9433 190.16 92.4833V96.2093H189.201V89.1218H190.119V91.0658L189.971 90.7013C190.196 90.1883 190.556 89.7878 191.051 89.4998C191.546 89.2028 192.135 89.0543 192.819 89.0543ZM201.348 98.8958C200.7 98.8958 200.079 98.8013 199.485 98.6123C198.891 98.4233 198.41 98.1533 198.041 97.8023L198.527 97.0733C198.86 97.3703 199.269 97.6043 199.755 97.7753C200.25 97.9553 200.772 98.0453 201.321 98.0453C202.221 98.0453 202.883 97.8338 203.306 97.4108C203.729 96.9968 203.94 96.3488 203.94 95.4668V93.6983L204.075 92.4833L203.981 91.2683V89.1218H204.899V95.3453C204.899 96.5693 204.597 97.4648 203.994 98.0318C203.4 98.6078 202.518 98.8958 201.348 98.8958ZM201.173 95.9393C200.498 95.9393 199.89 95.7953 199.35 95.5073C198.81 95.2103 198.383 94.8008 198.068 94.2788C197.762 93.7568 197.609 93.1583 197.609 92.4833C197.609 91.8083 197.762 91.2143 198.068 90.7013C198.383 90.1793 198.81 89.7743 199.35 89.4863C199.89 89.1983 200.498 89.0543 201.173 89.0543C201.803 89.0543 202.37 89.1848 202.874 89.4458C203.378 89.7068 203.778 90.0938 204.075 90.6068C204.372 91.1198 204.521 91.7453 204.521 92.4833C204.521 93.2213 204.372 93.8468 204.075 94.3598C203.778 94.8728 203.378 95.2643 202.874 95.5343C202.37 95.8043 201.803 95.9393 201.173 95.9393ZM201.267 95.0888C201.789 95.0888 202.253 94.9808 202.658 94.7648C203.063 94.5398 203.382 94.2338 203.616 93.8468C203.85 93.4508 203.967 92.9963 203.967 92.4833C203.967 91.9703 203.85 91.5203 203.616 91.1333C203.382 90.7463 203.063 90.4448 202.658 90.2288C202.253 90.0038 201.789 89.8913 201.267 89.8913C200.754 89.8913 200.291 90.0038 199.877 90.2288C199.472 90.4448 199.152 90.7463 198.918 91.1333C198.693 91.5203 198.581 91.9703 198.581 92.4833C198.581 92.9963 198.693 93.4508 198.918 93.8468C199.152 94.2338 199.472 94.5398 199.877 94.7648C200.291 94.9808 200.754 95.0888 201.267 95.0888ZM213.34 96.2768C212.674 96.2768 212.161 96.0968 211.801 95.7368C211.441 95.3768 211.261 94.8683 211.261 94.2113V87.5558H212.22V94.1573C212.22 94.5713 212.323 94.8908 212.53 95.1158C212.746 95.3408 213.052 95.4533 213.448 95.4533C213.871 95.4533 214.222 95.3318 214.501 95.0888L214.839 95.7773C214.65 95.9483 214.42 96.0743 214.15 96.1553C213.889 96.2363 213.619 96.2768 213.34 96.2768ZM209.992 89.9183V89.1218H214.38V89.9183H209.992ZM220.202 89.0543C220.778 89.0543 221.282 89.1668 221.714 89.3918C222.155 89.6078 222.497 89.9408 222.74 90.3908C222.992 90.8408 223.118 91.4078 223.118 92.0918V96.2093H222.159V92.1863C222.159 91.4393 221.97 90.8768 221.592 90.4988C221.223 90.1118 220.701 89.9183 220.026 89.9183C219.522 89.9183 219.081 90.0218 218.703 90.2288C218.334 90.4268 218.046 90.7193 217.839 91.1063C217.641 91.4843 217.542 91.9433 217.542 92.4833V96.2093H216.584V86.1923H217.542V91.0658L217.353 90.7013C217.578 90.1883 217.938 89.7878 218.433 89.4998C218.928 89.2028 219.518 89.0543 220.202 89.0543ZM228.717 96.2768C227.979 96.2768 227.331 96.1238 226.773 95.8178C226.215 95.5028 225.779 95.0753 225.464 94.5353C225.149 93.9863 224.991 93.3608 224.991 92.6588C224.991 91.9568 225.14 91.3358 225.437 90.7958C225.743 90.2558 226.157 89.8328 226.679 89.5268C227.21 89.2118 227.804 89.0543 228.461 89.0543C229.127 89.0543 229.716 89.2073 230.229 89.5133C230.751 89.8103 231.161 90.2333 231.458 90.7823C231.755 91.3223 231.903 91.9478 231.903 92.6588C231.903 92.7038 231.899 92.7533 231.89 92.8073C231.89 92.8523 231.89 92.9018 231.89 92.9558H225.72V92.2403H231.377L230.999 92.5238C230.999 92.0108 230.886 91.5563 230.661 91.1603C230.445 90.7553 230.148 90.4403 229.77 90.2153C229.392 89.9903 228.956 89.8778 228.461 89.8778C227.975 89.8778 227.538 89.9903 227.151 90.2153C226.764 90.4403 226.463 90.7553 226.247 91.1603C226.031 91.5653 225.923 92.0288 225.923 92.5508V92.6993C225.923 93.2393 226.04 93.7163 226.274 94.1303C226.517 94.5353 226.85 94.8548 227.273 95.0888C227.705 95.3138 228.195 95.4263 228.744 95.4263C229.176 95.4263 229.577 95.3498 229.946 95.1968C230.324 95.0438 230.648 94.8098 230.918 94.4948L231.458 95.1158C231.143 95.4938 230.747 95.7818 230.27 95.9798C229.802 96.1778 229.284 96.2768 228.717 96.2768ZM241.694 96.2903C240.983 96.2903 240.326 96.1733 239.723 95.9393C239.12 95.6963 238.598 95.3588 238.157 94.9268C237.716 94.4948 237.369 93.9863 237.117 93.4013C236.874 92.8163 236.753 92.1773 236.753 91.4843C236.753 90.7913 236.874 90.1523 237.117 89.5673C237.369 88.9823 237.716 88.4738 238.157 88.0418C238.607 87.6098 239.133 87.2768 239.736 87.0428C240.339 86.7998 240.996 86.6783 241.707 86.6783C242.391 86.6783 243.035 86.7953 243.638 87.0293C244.241 87.2543 244.749 87.5963 245.163 88.0553L244.529 88.6898C244.142 88.2938 243.714 88.0103 243.246 87.8393C242.778 87.6593 242.274 87.5693 241.734 87.5693C241.167 87.5693 240.641 87.6683 240.155 87.8663C239.669 88.0553 239.246 88.3298 238.886 88.6898C238.526 89.0408 238.242 89.4548 238.035 89.9318C237.837 90.3998 237.738 90.9173 237.738 91.4843C237.738 92.0513 237.837 92.5733 238.035 93.0503C238.242 93.5183 238.526 93.9323 238.886 94.2923C239.246 94.6433 239.669 94.9178 240.155 95.1158C240.641 95.3048 241.167 95.3993 241.734 95.3993C242.274 95.3993 242.778 95.3093 243.246 95.1293C243.714 94.9493 244.142 94.6613 244.529 94.2653L245.163 94.8998C244.749 95.3588 244.241 95.7053 243.638 95.9393C243.035 96.1733 242.387 96.2903 241.694 96.2903ZM249.663 96.2768C248.979 96.2768 248.363 96.1238 247.814 95.8178C247.274 95.5028 246.846 95.0753 246.531 94.5353C246.216 93.9863 246.059 93.3608 246.059 92.6588C246.059 91.9478 246.216 91.3223 246.531 90.7823C246.846 90.2423 247.274 89.8193 247.814 89.5133C248.354 89.2073 248.97 89.0543 249.663 89.0543C250.365 89.0543 250.986 89.2073 251.526 89.5133C252.075 89.8193 252.503 90.2423 252.809 90.7823C253.124 91.3223 253.281 91.9478 253.281 92.6588C253.281 93.3608 253.124 93.9863 252.809 94.5353C252.503 95.0753 252.075 95.5028 251.526 95.8178C250.977 96.1238 250.356 96.2768 249.663 96.2768ZM249.663 95.4263C250.176 95.4263 250.631 95.3138 251.027 95.0888C251.423 94.8548 251.733 94.5308 251.958 94.1168C252.192 93.6938 252.309 93.2078 252.309 92.6588C252.309 92.1008 252.192 91.6148 251.958 91.2008C251.733 90.7868 251.423 90.4673 251.027 90.2423C250.631 90.0083 250.181 89.8913 249.677 89.8913C249.173 89.8913 248.723 90.0083 248.327 90.2423C247.931 90.4673 247.616 90.7868 247.382 91.2008C247.148 91.6148 247.031 92.1008 247.031 92.6588C247.031 93.2078 247.148 93.6938 247.382 94.1168C247.616 94.5308 247.931 94.8548 248.327 95.0888C248.723 95.3138 249.168 95.4263 249.663 95.4263ZM264.094 89.0543C264.67 89.0543 265.169 89.1668 265.592 89.3918C266.024 89.6078 266.357 89.9408 266.591 90.3908C266.834 90.8408 266.956 91.4078 266.956 92.0918V96.2093H265.997V92.1863C265.997 91.4393 265.817 90.8768 265.457 90.4988C265.106 90.1118 264.607 89.9183 263.959 89.9183C263.473 89.9183 263.05 90.0218 262.69 90.2288C262.339 90.4268 262.064 90.7193 261.866 91.1063C261.677 91.4843 261.583 91.9433 261.583 92.4833V96.2093H260.624V92.1863C260.624 91.4393 260.444 90.8768 260.084 90.4988C259.724 90.1118 259.22 89.9183 258.572 89.9183C258.095 89.9183 257.677 90.0218 257.317 90.2288C256.957 90.4268 256.678 90.7193 256.48 91.1063C256.291 91.4843 256.196 91.9433 256.196 92.4833V96.2093H255.238V89.1218H256.156V91.0388L256.007 90.7013C256.223 90.1883 256.57 89.7878 257.047 89.4998C257.533 89.2028 258.104 89.0543 258.761 89.0543C259.454 89.0543 260.044 89.2298 260.53 89.5808C261.016 89.9228 261.331 90.4403 261.475 91.1333L261.097 90.9848C261.304 90.4088 261.668 89.9453 262.19 89.5943C262.721 89.2343 263.356 89.0543 264.094 89.0543ZM273.214 96.2768C272.602 96.2768 272.048 96.1373 271.553 95.8583C271.058 95.5703 270.662 95.1608 270.365 94.6298C270.077 94.0898 269.933 93.4328 269.933 92.6588C269.933 91.8848 270.077 91.2323 270.365 90.7013C270.653 90.1613 271.045 89.7518 271.54 89.4728C272.035 89.1938 272.593 89.0543 273.214 89.0543C273.889 89.0543 274.492 89.2073 275.023 89.5133C275.563 89.8103 275.986 90.2333 276.292 90.7823C276.598 91.3223 276.751 91.9478 276.751 92.6588C276.751 93.3788 276.598 94.0088 276.292 94.5488C275.986 95.0888 275.563 95.5118 275.023 95.8178C274.492 96.1238 273.889 96.2768 273.214 96.2768ZM269.555 98.8283V89.1218H270.473V91.2548L270.379 92.6723L270.514 94.1033V98.8283H269.555ZM273.146 95.4263C273.65 95.4263 274.1 95.3138 274.496 95.0888C274.892 94.8548 275.207 94.5308 275.441 94.1168C275.675 93.6938 275.792 93.2078 275.792 92.6588C275.792 92.1098 275.675 91.6283 275.441 91.2143C275.207 90.8003 274.892 90.4763 274.496 90.2423C274.1 90.0083 273.65 89.8913 273.146 89.8913C272.642 89.8913 272.188 90.0083 271.783 90.2423C271.387 90.4763 271.072 90.8003 270.838 91.2143C270.613 91.6283 270.5 92.1098 270.5 92.6588C270.5 93.2078 270.613 93.6938 270.838 94.1168C271.072 94.5308 271.387 94.8548 271.783 95.0888C272.188 95.3138 272.642 95.4263 273.146 95.4263ZM278.705 96.2093V86.1923H279.663V96.2093H278.705ZM285.341 96.2768C284.603 96.2768 283.955 96.1238 283.397 95.8178C282.839 95.5028 282.402 95.0753 282.087 94.5353C281.772 93.9863 281.615 93.3608 281.615 92.6588C281.615 91.9568 281.763 91.3358 282.06 90.7958C282.366 90.2558 282.78 89.8328 283.302 89.5268C283.833 89.2118 284.427 89.0543 285.084 89.0543C285.75 89.0543 286.34 89.2073 286.853 89.5133C287.375 89.8103 287.784 90.2333 288.081 90.7823C288.378 91.3223 288.527 91.9478 288.527 92.6588C288.527 92.7038 288.522 92.7533 288.513 92.8073C288.513 92.8523 288.513 92.9018 288.513 92.9558H282.344V92.2403H288L287.622 92.5238C287.622 92.0108 287.51 91.5563 287.285 91.1603C287.069 90.7553 286.772 90.4403 286.394 90.2153C286.016 89.9903 285.579 89.8778 285.084 89.8778C284.598 89.8778 284.162 89.9903 283.775 90.2153C283.388 90.4403 283.086 90.7553 282.87 91.1603C282.654 91.5653 282.546 92.0288 282.546 92.5508V92.6993C282.546 93.2393 282.663 93.7163 282.897 94.1303C283.14 94.5353 283.473 94.8548 283.896 95.0888C284.328 95.3138 284.819 95.4263 285.368 95.4263C285.8 95.4263 286.2 95.3498 286.569 95.1968C286.947 95.0438 287.271 94.8098 287.541 94.4948L288.081 95.1158C287.766 95.4938 287.37 95.7818 286.893 95.9798C286.425 96.1778 285.908 96.2768 285.341 96.2768ZM289.2 96.2093L292.197 92.3213L292.183 92.7938L289.335 89.1218H290.415L292.75 92.1593L292.345 92.1458L294.681 89.1218H295.734L292.858 92.8343L292.872 92.3213L295.896 96.2093H294.802L292.332 92.9693L292.71 93.0233L290.28 96.2093H289.2Z" fill="#060456"/>
<circle cx="6.25168" cy="6.25168" r="6.25168" transform="matrix(0.5 0.866025 0.866025 -0.5 6.97272 87.4691)" fill="#3C81F6"/>
<path d="M9.46554 70.5809L22.4276 86.3478L25.8132 78.2436L10.0506 69.8774L9.46554 70.5809Z" fill="white"/>
<circle cx="99.54" cy="90.1215" r="6.25168" transform="rotate(120 99.54 90.1215)" fill="#3C81F6"/>
<path d="M85.8856 105.012L92.464 85.6897L83.7917 87.0789L84.9795 104.885L85.8856 105.012Z" fill="white"/>
<circle cx="6.25168" cy="6.25168" r="6.25168" transform="matrix(-1 -8.54142e-08 -8.54142e-08 1 64.3204 11.4527)" fill="#3C81F6"/>
<path d="M77.6996 22.0557L57.5641 25.3977L62.8897 32.3818L78.0163 22.9141L77.6996 22.0557Z" fill="white"/>
<circle cx="100.357" cy="90.1215" r="6.25168" transform="rotate(120 100.357 90.1215)" fill="#3C81F6"/>
<path d="M21.2351 74.7864L16.9316 81.2411C12.4403 70.3393 8.14794 45.2469 26.909 32.0923C15.0761 42.7649 18.196 65.0019 21.2351 74.7864Z" fill="#92C5FD"/>
<path d="M20.7077 59.7198C25.6565 34.6865 46.2816 27.851 55.9755 27.5624L47.067 18.2367C37.6231 21.8366 19.1298 35.1729 20.7077 59.7198Z" fill="#3C81F6"/>
<path d="M83.6501 94.0823L91.3738 94.8085C83.9076 103.934 63.8551 119.617 43.3746 109.342C58.3833 114.695 76.4786 101.399 83.6501 94.0823Z" fill="#92C5FD"/>
<path d="M70.6372 101.694C46.2525 109.214 30.4505 94.3005 25.5975 85.9038L21.6143 98.1702C29.2636 104.776 49.7771 114.729 70.6372 101.694Z" fill="#3C81F6"/>
<path d="M68.7121 29.7457L65.0922 22.8843C76.8161 24.1377 100.917 32.3356 103.528 55.0997C99.7932 39.6087 78.7612 31.7425 68.7121 29.7457Z" fill="#92C5FD"/>
<path d="M82.2053 36.4698C101.846 52.7614 98.0139 74.1491 93.6431 82.8066L106.089 79.4259C107.43 69.4086 104.532 46.7932 82.2053 36.4698Z" fill="#3C81F6"/>
<path d="M58.0687 66.8064V86.5564L75.3187 76.8064V57.0563L58.0687 66.8064Z" fill="#3C81F6"/>
<path d="M58.0687 66.8064V86.5564L40.8186 76.8064V57.0563L58.0687 66.8064Z" fill="#92C5FD"/>
<path d="M58.0686 47.3278L75.3474 57.0736L58.0686 66.8194L40.7899 57.0736L58.0686 47.3278Z" fill="#126AFF"/>
<path d="M442.977 29.8985V22.9025H440.271V22.1985H446.497V22.9025H443.791V29.8985H442.977ZM447.798 29.8985V22.1985H448.469L451.989 28.2045H451.637L455.124 22.1985H455.795V29.8985H455.014V23.4195H455.201L451.989 28.9195H451.604L448.37 23.4195H448.579V29.8985H447.798Z" fill="black"/>
</svg>
