<svg width="7" height="7" viewBox="0 0 7 7" fill="none" xmlns="http://www.w3.org/2000/svg">
<path fill-rule="evenodd" clip-rule="evenodd" d="M5.4892 4.23249C5.27833 4.02424 5.01525 4.02424 4.80583 4.23249C4.646 4.39086 4.48616 4.54924 4.32895 4.71053C4.28608 4.75486 4.24962 4.7642 4.19741 4.73474C4.09387 4.67815 3.98391 4.63265 3.88445 4.57082C3.42129 4.27945 3.03337 3.90465 2.6895 3.4832C2.51887 3.27349 2.3672 3.04949 2.26104 2.7969C2.23945 2.74586 2.24354 2.71232 2.28525 2.6709C2.44508 2.51632 2.60083 2.35795 2.75804 2.19928C2.97679 1.97907 2.97679 1.72153 2.75658 1.49986C2.63175 1.37357 2.50662 1.2499 2.38208 1.1239C2.25287 0.994987 2.12541 0.864612 1.99533 0.737154C1.78445 0.531821 1.52137 0.531821 1.31166 0.738612C1.15066 0.896696 0.996079 1.05945 0.832454 1.2152C0.680496 1.3587 0.604079 1.53457 0.588038 1.7402C0.562371 2.07445 0.644329 2.39003 0.759829 2.69745C0.996079 3.33415 1.356 3.8994 1.79233 4.4177C2.38208 5.11886 3.08558 5.67332 3.90866 6.07349C4.27937 6.25345 4.6632 6.39169 5.08116 6.41444C5.36816 6.43078 5.61812 6.35815 5.8182 6.13386C5.95529 5.98074 6.10958 5.84103 6.25454 5.6949C6.4695 5.47732 6.47066 5.21395 6.25716 4.99899C6.00225 4.7429 5.74558 4.4877 5.4892 4.23249Z" stroke="#808080" stroke-linecap="square"/>
</svg>
