<svg width="7" height="7" viewBox="0 0 7 7" fill="none" xmlns="http://www.w3.org/2000/svg">
<path d="M3.49998 0.583336C5.11081 0.583336 6.41665 1.88917 6.41665 3.5M3.49998 0.583336C4.22952 1.38202 4.64412 2.41851 4.66665 3.5C4.64412 4.58149 4.22952 5.61798 3.49998 6.41667M3.49998 0.583336C2.77044 1.38202 2.35584 2.41851 2.33331 3.5C2.35584 4.58149 2.77044 5.61798 3.49998 6.41667M3.49998 0.583336C1.88915 0.583336 0.583313 1.88917 0.583313 3.5M6.41665 3.5C6.41665 5.11083 5.11081 6.41667 3.49998 6.41667M6.41665 3.5H0.583313M3.49998 6.41667L3.41834 6.41555C1.84526 6.37232 0.583313 5.08353 0.583313 3.5" stroke="#808080" stroke-linecap="square"/>
</svg>
